<?xml version="1.0" encoding="UTF-8"?>
<!-- Do not edit this file with editors other than draw.io -->
<!DOCTYPE svg PUBLIC "-//W3C//DTD SVG 1.1//EN" "http://www.w3.org/Graphics/SVG/1.1/DTD/svg11.dtd">
<svg xmlns="http://www.w3.org/2000/svg" xmlns:xlink="http://www.w3.org/1999/xlink" version="1.1" width="511px" height="381px" viewBox="-0.5 -0.5 511 381">
  <g id="rainbow3">
  <rect fill="#ffffff" width="100%" height="100%" x="0" y="0"/>
  <path d="M 5 5 L 505 5" fill="none" stroke="#000000" stroke-width="10" stroke-miterlimit="10" pointer-events="stroke"/>
  <path d="M 325 95 L 325 5" fill="none" stroke="#000000" stroke-width="10" stroke-miterlimit="10" pointer-events="stroke"/>
  <path d="M 325 325 L 325 225" fill="none" stroke="#000000" stroke-width="10" stroke-miterlimit="10" pointer-events="stroke"/>
  <path d="M 325 325 L 375 325 Q 385 325 377.32 331.4 L 332.68 368.6 Q 325 375 317.32 368.6 L 272.68 331.4 Q 265 325 275 325 L 325 325" fill="none" stroke="#000000" stroke-width="10" stroke-miterlimit="10" pointer-events="stroke"/>
  <path d="M 325 219 Q 275 199 325 179" fill="none" stroke="#000000" stroke-width="10" stroke-miterlimit="10" pointer-events="stroke"/>
  <path d="M 325 179 Q 275 159 325 139" fill="none" stroke="#000000" stroke-width="10" stroke-miterlimit="10" pointer-events="stroke"/>
  <path d="M 325 139 Q 275 119 325 99" fill="none" stroke="#000000" stroke-width="10" stroke-miterlimit="10" pointer-events="stroke"/>
  <path d="M 185 95 L 185 5" fill="none" stroke="#000000" stroke-width="10" stroke-miterlimit="10" pointer-events="stroke"/>
  <path d="M 185 325 L 185 225" fill="none" stroke="#000000" stroke-width="10" stroke-miterlimit="10" pointer-events="stroke"/>
  <path d="M 185 325 L 235 325 Q 245 325 237.32 331.4 L 192.68 368.6 Q 185 375 177.32 368.6 L 132.68 331.4 Q 125 325 135 325 L 185 325" fill="none" stroke="#000000" stroke-width="10" stroke-miterlimit="10" pointer-events="stroke"/>
  <path d="M 185 219 Q 235 195 185 179" fill="none" stroke="#000000" stroke-width="10" stroke-miterlimit="10" pointer-events="stroke"/>
  <path d="M 185 179 Q 235 159 185 139" fill="none" stroke="#000000" stroke-width="10" stroke-miterlimit="10" pointer-events="stroke"/>
  <path d="M 185 139 Q 235 115 185 99" fill="none" stroke="#000000" stroke-width="10" stroke-miterlimit="10" pointer-events="stroke"/>
  <path d="M 245 225 L 245 105" fill="none" stroke="#000000" stroke-width="10" stroke-miterlimit="10" pointer-events="stroke"/>
  <path d="M 265 225 L 265 105" fill="none" stroke="#000000" stroke-width="10" stroke-miterlimit="10" pointer-events="stroke"/>
  </g>
</svg>